<svg xmlns="http://www.w3.org/2000/svg" width="720" height="420" viewBox="0 0 720 420">
<rect width="720" height="420" fill="#fafafa"/>
<text x="360" y="24" text-anchor="middle" font-family="system-ui" font-size="15" font-weight="bold" fill="#111">图1: 500用户测试API成功率分布</text>
<text x="16" y="390" font-family="system-ui" font-size="11" fill="#555">成功率</text>
<line x1="80" y1="130.5" x2="700" y2="130.5" stroke="#ddd" stroke-width="0.5"/>
<text x="74" y="134.5" text-anchor="end" font-family="system-ui" font-size="10" fill="#888">90%</text>
<line x1="80" y1="117.75" x2="700" y2="117.75" stroke="#ddd" stroke-width="0.5"/>
<text x="74" y="121.75" text-anchor="end" font-family="system-ui" font-size="10" fill="#888">95%</text>
<line x1="80" y1="110.1" x2="700" y2="110.1" stroke="#ddd" stroke-width="0.5"/>
<text x="74" y="114.1" text-anchor="end" font-family="system-ui" font-size="10" fill="#888">98%</text>
<line x1="80" y1="107.55000000000001" x2="700" y2="107.55000000000001" stroke="#ddd" stroke-width="0.5"/>
<text x="74" y="111.55000000000001" text-anchor="end" font-family="system-ui" font-size="10" fill="#888">99%</text>
<line x1="80" y1="105.0" x2="700" y2="105.0" stroke="#ddd" stroke-width="0.5"/>
<text x="74" y="109.0" text-anchor="end" font-family="system-ui" font-size="10" fill="#888">100%</text>
<rect x="80" y="105.50999999999999" width="60" height="254.49" fill="#2563eb" rx="3"/>
<text x="110" y="99.50999999999999" text-anchor="middle" font-family="system-ui" font-size="11" font-weight="bold" fill="#111">99.8%</text>
<text x="110" y="376" text-anchor="middle" font-family="system-ui" font-size="9" fill="#555">/api/login</text>
<rect x="160" y="105.50999999999999" width="60" height="254.49" fill="#3b82f6" rx="3"/>
<text x="190" y="99.50999999999999" text-anchor="middle" font-family="system-ui" font-size="11" font-weight="bold" fill="#111">99.8%</text>
<text x="190" y="376" text-anchor="middle" font-family="system-ui" font-size="9" fill="#555">/api/learn</text>
<rect x="240" y="105.50999999999999" width="60" height="254.49" fill="#60a5fa" rx="3"/>
<text x="270" y="99.50999999999999" text-anchor="middle" font-family="system-ui" font-size="11" font-weight="bold" fill="#111">99.8%</text>
<text x="270" y="376" text-anchor="middle" font-family="system-ui" font-size="9" fill="#555">/api/chat</text>
<rect x="320" y="105.50999999999999" width="60" height="254.49" fill="#93c5fd" rx="3"/>
<text x="350" y="99.50999999999999" text-anchor="middle" font-family="system-ui" font-size="11" font-weight="bold" fill="#111">99.8%</text>
<text x="350" y="376" text-anchor="middle" font-family="system-ui" font-size="9" fill="#555">/api/history</text>
<rect x="400" y="105.50999999999999" width="60" height="254.49" fill="#1d4ed8" rx="3"/>
<text x="430" y="99.50999999999999" text-anchor="middle" font-family="system-ui" font-size="11" font-weight="bold" fill="#111">99.8%</text>
<text x="430" y="376" text-anchor="middle" font-family="system-ui" font-size="9" fill="#555">/api/status</text>
<rect x="480" y="105.50999999999999" width="60" height="254.49" fill="#1e40af" rx="3"/>
<text x="510" y="99.50999999999999" text-anchor="middle" font-family="system-ui" font-size="11" font-weight="bold" fill="#111">99.8%</text>
<text x="510" y="376" text-anchor="middle" font-family="system-ui" font-size="9" fill="#555">/health</text>
<rect x="560" y="105.50999999999999" width="60" height="254.49" fill="#1e3a8a" rx="3"/>
<text x="590" y="99.50999999999999" text-anchor="middle" font-family="system-ui" font-size="11" font-weight="bold" fill="#111">99.8%</text>
<text x="590" y="376" text-anchor="middle" font-family="system-ui" font-size="9" fill="#555">/api/models</text>
<rect x="640" y="105.50999999999999" width="60" height="254.49" fill="#172554" rx="3"/>
<text x="670" y="99.50999999999999" text-anchor="middle" font-family="system-ui" font-size="11" font-weight="bold" fill="#111">99.8%</text>
<text x="670" y="376" text-anchor="middle" font-family="system-ui" font-size="9" fill="#555">/api/tags</text>
</svg>