<svg xmlns="http://www.w3.org/2000/svg" width="700" height="320" viewBox="0 0 700 320">
<rect width="700" height="320" fill="#fafafa"/>
<text x="350" y="24" text-anchor="middle" font-family="system-ui" font-size="15" font-weight="bold" fill="#111">图4: 30用户 vs 500用户测试对比</text>
<text x="10" y="73" font-family="system-ui" font-size="12" fill="#333">用户数</text>
<rect x="140" y="55" width="100" height="36" fill="#2563eb" rx="3"/>
<text x="190" y="77" text-anchor="middle" font-family="system-ui" font-size="12" font-weight="bold" fill="#fff">30</text>
<rect x="260" y="55" width="100" height="36" fill="#3b82f6" rx="3"/>
<text x="310" y="77" text-anchor="middle" font-family="system-ui" font-size="12" font-weight="bold" fill="#fff">500</text>
<text x="140" y="49" font-family="system-ui" font-size="10" fill="#666">30用户</text>
<text x="260" y="49" font-family="system-ui" font-size="10" fill="#666">500用户</text>
<text x="10" y="121" font-family="system-ui" font-size="12" fill="#333">学习成功率</text>
<rect x="140" y="103" width="100" height="36" fill="#16a34a" rx="3"/>
<text x="190" y="125" text-anchor="middle" font-family="system-ui" font-size="12" font-weight="bold" fill="#fff">100%</text>
<rect x="260" y="103" width="100" height="36" fill="#22c55e" rx="3"/>
<text x="310" y="125" text-anchor="middle" font-family="system-ui" font-size="12" font-weight="bold" fill="#fff">99.8%</text>
<text x="140" y="97" font-family="system-ui" font-size="10" fill="#666">30用户</text>
<text x="260" y="97" font-family="system-ui" font-size="10" fill="#666">500用户</text>
<text x="10" y="169" font-family="system-ui" font-size="12" fill="#333">平均延迟P50(ms)</text>
<rect x="140" y="151" width="100" height="36" fill="#ca8a04" rx="3"/>
<text x="190" y="173" text-anchor="middle" font-family="system-ui" font-size="12" font-weight="bold" fill="#fff">N/A</text>
<rect x="260" y="151" width="100" height="36" fill="#eab308" rx="3"/>
<text x="310" y="173" text-anchor="middle" font-family="system-ui" font-size="12" font-weight="bold" fill="#fff">47</text>
<text x="140" y="145" font-family="system-ui" font-size="10" fill="#666">30用户</text>
<text x="260" y="145" font-family="system-ui" font-size="10" fill="#666">500用户</text>
<text x="10" y="217" font-family="system-ui" font-size="12" fill="#333">吞吐量(用户/秒)</text>
<rect x="140" y="199" width="100" height="36" fill="#7c3aed" rx="3"/>
<text x="190" y="221" text-anchor="middle" font-family="system-ui" font-size="12" font-weight="bold" fill="#fff">~1.6</text>
<rect x="260" y="199" width="100" height="36" fill="#8b5cf6" rx="3"/>
<text x="310" y="221" text-anchor="middle" font-family="system-ui" font-size="12" font-weight="bold" fill="#fff">1.9</text>
<text x="140" y="193" font-family="system-ui" font-size="10" fill="#666">30用户</text>
<text x="260" y="193" font-family="system-ui" font-size="10" fill="#666">500用户</text>
<text x="10" y="265" font-family="system-ui" font-size="12" fill="#333">API接口数</text>
<rect x="140" y="247" width="100" height="36" fill="#dc2626" rx="3"/>
<text x="190" y="269" text-anchor="middle" font-family="system-ui" font-size="12" font-weight="bold" fill="#fff">11</text>
<rect x="260" y="247" width="100" height="36" fill="#ef4444" rx="3"/>
<text x="310" y="269" text-anchor="middle" font-family="system-ui" font-size="12" font-weight="bold" fill="#fff">8</text>
<text x="140" y="241" font-family="system-ui" font-size="10" fill="#666">30用户</text>
<text x="260" y="241" font-family="system-ui" font-size="10" fill="#666">500用户</text>
</svg>